<?xml version="1.0" ?><svg id="Layer_1" style="enable-background:new 0 0 50 50;" version="1.1" viewBox="0 0 50 50" xml:space="preserve" xmlns="http://www.w3.org/2000/svg" xmlns:xlink="http://www.w3.org/1999/xlink"><style type="text/css">
	.st0{fill:#99e3ff;}
	.st1{fill:#004058;}
	.st2{fill:#FFFFFF;}
	.st4{fill:#fbc02d;}
	.st6{fill:#fbc02d;}
	.st7{fill:#fbc02d;}
	.st11{fill:#004058;}
</style><g><g><g><g><g><g><g><path class="st0" d="M47.05795,37.41581L29.77653,47.45867c-0.36626,0.21365-0.95634,0.21365-1.3226,0.0034L2.19542,32.29974         c-0.36626-0.21025-0.36626-0.55278,0-0.76643l17.28141-10.04284c0.36287-0.21026,0.95294-0.21026,1.3192,0L47.05455,36.6494         C47.42081,36.86305,47.42421,37.20555,47.05795,37.41581z"/></g><g><path class="st1" d="M26.26471,38.08479c0.20825,0.12023,0.20703,0.31612,0.00012,0.43636l-4.29602,2.49657         c-0.2069,0.12024-0.54507,0.12159-0.75332,0.00135l-8.46573-4.8877c-0.20825-0.12023-0.20702-0.31612-0.00012-0.43636         l4.29602-2.49657c0.2069-0.12024,0.54507-0.12159,0.75332-0.00135L26.26471,38.08479z"/></g><g><path class="st1" d="M47.32925,37.03599l-0.0034,1.38364c0,0.13566-0.09155,0.27469-0.2713,0.37982L29.77314,48.84231         c-0.36626,0.21025-0.95634,0.21025-1.3226,0L2.19202,33.68338c-0.18312-0.10513-0.27469-0.24416-0.27469-0.38661         l0.00339-1.38025c0,0.13905,0.09155,0.27808,0.27469,0.38321l26.25852,15.16233         c0.36626,0.21025,0.95634,0.21025,1.3226-0.0034l17.28142-10.04286C47.24107,37.31068,47.32925,37.17505,47.32925,37.03599z"/></g></g><g><g><path class="st1" d="M46.72729,16.43427c0.36591,0.21126,0.66158,0.72336,0.66039,1.14384l-0.04681,18.47405         c-0.00119,0.41798-0.29879,0.59005-0.66471,0.3788L20.79604,21.49047c-0.36591-0.21126-0.66157-0.72585-0.66039-1.14384         l0.04681-18.47405c0.00119-0.42047,0.29879-0.59005,0.66471-0.3788L46.72729,16.43427z"/></g><g><path class="st4" d="M33.76173,9.74253c0.3175,0.18331,0.56921,0.62347,0.56819,0.98415         c-0.00102,0.36069-0.25441,0.50922-0.5719,0.32592c-0.31389-0.18123-0.56562-0.62139-0.56459-0.98207         C33.19444,9.70984,33.44783,9.5613,33.76173,9.74253z"/></g><g><path class="st0" d="M48.08267,17.17545l-0.04749,18.47334c0,0.20686-0.07462,0.35608-0.1933,0.42391l-0.69411,0.40365         c0.11871-0.06781,0.1933-0.21703,0.1933-0.42391l0.04748-18.47332c0-0.42053-0.29504-0.9326-0.6613-1.14625L20.84702,1.49407         c-0.18314-0.10513-0.34931-0.11529-0.47139-0.04748l0.69411-0.40365c0.11869-0.06783,0.28825-0.05767,0.47137,0.04746         l25.88026,14.94219C47.78763,16.24285,48.08267,16.75493,48.08267,17.17545z"/></g><g><polygon class="st2" points="46.45359,19.1525 46.40856,35.1999 21.06974,20.57194 21.11478,4.52454        "/></g></g></g></g></g><g><g><g><polygon class="st7" points="43.25139,25.12937 43.24868,26.08547 31.13796,19.09334 31.14067,18.13724      "/></g><g class="st8"><g><polygon class="st7" points="43.23947,29.33307 43.23676,30.28911 31.12605,23.29699 31.12876,22.34094       "/></g><g><polygon class="st7" points="43.24541,27.23881 43.24274,28.17973 31.13202,21.1876 31.13469,20.24668       "/></g><g><polygon class="st4" points="43.27045,19.14132 43.25909,23.14772 23.32988,11.64159 23.34124,7.63518       "/></g></g><g><polygon class="st6" points="29.75394,17.33661 29.73931,22.49636 23.30755,18.78298 23.32218,13.62323      "/></g></g><g><polygon class="st11" points="37.70477,25.60566 40.46217,27.48066 39.78404,27.86711 40.76686,29.56943 39.60266,30.22601       38.61983,28.52369 37.94171,28.91013     "/></g></g></g><g><g><polygon class="st11" points="30.00167,32.25355 28.52095,33.11406 26.83084,32.13828 28.31157,31.27777    "/></g><g><polygon class="st11" points="28.13383,33.33902 26.6531,34.19953 24.963,33.22375 26.44373,32.36324    "/></g><g class="st8"><g><polygon class="st11" points="22.38879,23.53051 20.90323,24.39382 19.21312,23.41804 20.69868,22.55472     "/></g><g><polygon class="st11" points="24.65851,24.84093 23.17294,25.70424 21.48283,24.72846 22.9684,23.86514     "/></g><g><polygon class="st11" points="21.36356,25.10246 19.878,25.96578 17.34527,24.50351 18.83084,23.64019     "/></g><g><polygon class="st11" points="26.92822,26.15135 25.44266,27.01467 23.75255,26.03888 25.23811,25.17556     "/></g><g><polygon class="st11" points="23.63328,26.41289 22.14771,27.2762 20.45761,26.30042 21.94318,25.4371     "/></g><g><polygon class="st11" points="16.78526,26.78693 15.30453,27.64743 13.61442,26.67164 15.09515,25.81114     "/></g><g><polygon class="st11" points="20.92282,27.01187 19.44209,27.87238 15.48227,25.58617 16.96299,24.72567     "/></g><g><polygon class="st11" points="29.19793,27.46177 27.71236,28.32508 26.02226,27.3493 27.50783,26.48598     "/></g><g><polygon class="st11" points="25.90299,27.72331 24.41743,28.58662 22.72733,27.61084 24.21289,26.74752     "/></g><g><polygon class="st11" points="19.05498,28.09735 17.57425,28.95785 15.88414,27.98207 17.36486,27.12156     "/></g><g><polygon class="st11" points="23.19254,28.32229 21.71181,29.1828 20.0217,28.20701 21.50242,27.34651     "/></g><g><polygon class="st11" points="31.46765,28.77219 29.98208,29.6355 28.29198,28.65972 29.77754,27.79641     "/></g><g><polygon class="st11" points="28.17271,29.03373 26.68714,29.89704 24.99704,28.92126 26.48261,28.05795     "/></g><g><polygon class="st11" points="17.18713,29.18282 15.7064,30.04332 11.74658,27.75712 13.2273,26.89661     "/></g><g><polygon class="st11" points="21.32469,29.40777 19.84396,30.26827 18.15385,29.29249 19.63458,28.43198     "/></g><g><polygon class="st11" points="25.46224,29.63271 23.98152,30.49321 22.29141,29.51743 23.77214,28.65693     "/></g><g><polygon class="st11" points="33.73736,30.08261 32.2518,30.94592 30.56169,29.97014 32.04726,29.10682     "/></g><g><polygon class="st11" points="30.44242,30.34415 28.95686,31.20746 27.27163,30.2345 28.75719,29.37118     "/></g><g><polygon class="st11" points="23.5944,30.71818 22.11367,31.57869 20.42357,30.60291 21.90429,29.7424     "/></g><g><polygon class="st11" points="27.73196,30.94313 26.25123,31.80363 24.56113,30.82785 26.04185,29.96735     "/></g><g><polygon class="st11" points="25.86411,32.0286 24.38339,32.88911 22.69328,31.91333 24.17401,31.05282     "/></g><g><polygon class="st11" points="26.36341,34.48075 24.88268,35.34125 16.28601,30.37796 17.76674,29.51745     "/></g></g><g><polygon class="st11" points="33.07513,38.35576 31.5944,39.21626 29.9043,38.24048 31.38503,37.37998    "/></g><g><polygon class="st11" points="30.80541,37.04534 29.32469,37.90584 27.63458,36.93006 29.11531,36.06956    "/></g><g><polygon class="st11" points="28.5357,35.73492 27.05497,36.59542 25.36487,35.61964 26.8456,34.75914    "/></g><g><polygon class="st11" points="30.40354,34.64944 28.92282,35.50995 27.23272,34.53417 28.71344,33.67366    "/></g><g><polygon class="st11" points="32.27139,33.56397 30.79066,34.42448 29.10056,33.4487 30.58129,32.58819    "/></g><g><polygon class="st11" points="34.98673,32.9678 33.50116,33.83112 31.81106,32.85534 33.29663,31.99202    "/></g><g><polygon class="st11" points="36.00708,31.39303 34.52151,32.25634 32.83141,31.28056 34.31697,30.41725    "/></g><g><polygon class="st11" points="42.81622,35.32429 41.33066,36.18761 39.64543,35.21464 41.13099,34.35132    "/></g><g><polygon class="st11" points="43.22297,37.723 41.7374,38.58631 38.6202,36.7866 40.10577,35.92328    "/></g><g><polygon class="st11" points="34.94297,37.27029 33.46225,38.13079 31.77214,37.15501 33.25287,36.29451    "/></g><g><polygon class="st11" points="41.35512,38.80847 39.87439,39.66897 35.91458,37.38277 37.3953,36.52227    "/></g><g><polygon class="st11" points="36.81082,36.18481 35.33009,37.04532 33.63999,36.06954 35.12072,35.20903    "/></g><g><polygon class="st11" points="39.52616,35.58864 38.04059,36.45196 36.35049,35.47618 37.83606,34.61286    "/></g><g><polygon class="st11" points="40.54651,34.01387 39.06094,34.87719 37.37084,33.90141 38.8564,33.03809    "/></g><g><polygon class="st11" points="34.5411,34.87439 33.06038,35.7349 31.37028,34.75912 32.851,33.89861    "/></g><g><polygon class="st11" points="37.25644,34.27822 35.77088,35.14154 34.08078,34.16576 35.56634,33.30244    "/></g><g><polygon class="st11" points="38.27679,32.70345 36.79123,33.56676 35.10112,32.59098 36.58669,31.72767    "/></g><g><polygon class="st11" points="45.09081,36.63752 43.60524,37.50084 41.91514,36.52506 43.40071,35.66174    "/></g><g><polygon class="st11" points="32.71701,31.65738 31.23145,32.5207 29.54134,31.54492 31.02691,30.6816    "/></g><g><polygon class="st11" points="35.34484,39.66618 33.86412,40.52668 32.17889,39.55371 33.65961,38.69321    "/></g><g><polygon class="st11" points="39.48727,39.89394 36.13871,41.83992 34.4486,40.86414 37.79717,38.91816    "/></g></g></g></svg>