<?xml version="1.0" encoding="iso-8859-1"?>
<!-- Generator: Adobe Illustrator 19.0.0, SVG Export Plug-In . SVG Version: 6.00 Build 0)  -->
<svg version="1.1" id="Layer_1" xmlns="http://www.w3.org/2000/svg" xmlns:xlink="http://www.w3.org/1999/xlink" x="0px" y="0px"
	 viewBox="0 0 512 512" style="enable-background:new 0 0 512 512;" xml:space="preserve">
<path fill="#b71540" d="M462.009,20.359H49.99C22.382,20.359,0,42.739,0,70.348v371.304c0,27.609,22.382,49.989,49.99,49.989
	h412.019c27.609,0,49.991-22.382,49.991-49.989V70.348C512,42.739,489.618,20.359,462.009,20.359z"/>
<path style="fill:#fff;" d="M66.354,168.954c-5.137,0-9.316-4.178-9.316-9.315V73.06c0-5.136,4.178-9.314,9.316-9.314h387.59
	c5.136,0,9.315,4.177,9.315,9.314v86.579c0,5.136-4.178,9.315-9.315,9.315H66.354z"/>
<g>
	<rect x="57.038" y="215.793" style="fill:#fff;" width="170.928" height="80.41"/>
	<rect x="57.038" y="352.186" style="fill:#fff;" width="170.928" height="80.41"/>
	<rect x="283.01" y="215.793" style="fill:#fff;" width="170.928" height="80.41"/>
	<rect x="283.01" y="352.186" style="fill:#fff;" width="170.928" height="80.41"/>
</g>
<path style="opacity:0.1;enable-background:new;" d="M104.338,441.652V70.348c0-27.609,22.382-49.989,49.99-49.989H49.99
	C22.382,20.359,0,42.739,0,70.348v371.304c0,27.608,22.382,49.989,49.99,49.989h104.338
	C126.719,491.641,104.338,469.26,104.338,441.652z"/>
<g>
</g>
<g>
</g>
<g>
</g>
<g>
</g>
<g>
</g>
<g>
</g>
<g>
</g>
<g>
</g>
<g>
</g>
<g>
</g>
<g>
</g>
<g>
</g>
<g>
</g>
<g>
</g>
<g>
</g>
</svg>
