<?xml version="1.0" encoding="iso-8859-1"?>
<!-- Generator: Adobe Illustrator 16.0.0, SVG Export Plug-In . SVG Version: 6.00 Build 0)  -->
<!DOCTYPE svg PUBLIC "-//W3C//DTD SVG 1.1//EN" "http://www.w3.org/Graphics/SVG/1.1/DTD/svg11.dtd">
<svg version="1.1" id="Capa_1" xmlns="http://www.w3.org/2000/svg" xmlns:xlink="http://www.w3.org/1999/xlink" x="0px" y="0px"
	 width="440.994px" height="440.994px" viewBox="0 0 440.994 440.994" style="enable-background:new 0 0 440.994 440.994;"
	 xml:space="preserve">
<g>
	<g>
		<path fill="#fbc02d" d="M435.289,209.037l-53.984-40.794l19.699-64.751c1.312-4.31,0.525-8.984-2.123-12.628
			c-2.647-3.643-6.854-5.833-11.356-5.916l-67.672-1.235l-22.065-63.997c-1.469-4.262-4.855-7.587-9.143-8.979
			c-4.283-1.393-8.979-0.692-12.675,1.892l-55.475,38.814L165.02,12.627c-3.693-2.583-8.387-3.285-12.674-1.892
			c-4.289,1.393-7.672,4.718-9.143,8.979l-22.064,63.996l-67.672,1.236c-4.502,0.083-8.707,2.272-11.355,5.916
			c-2.648,3.644-3.436,8.319-2.125,12.628l19.701,64.75L5.705,209.037C2.111,211.751,0,215.995,0,220.497
			c0,4.503,2.111,8.746,5.705,11.461l53.984,40.794L39.99,337.502c-1.311,4.31-0.523,8.984,2.125,12.628
			c2.648,3.643,6.854,5.833,11.355,5.916l67.672,1.236l22.064,63.996c1.469,4.262,4.854,7.587,9.141,8.979
			c4.285,1.394,8.98,0.692,12.674-1.893l55.475-38.814l55.477,38.815c2.443,1.709,5.324,2.595,8.236,2.595
			c1.488,0,2.986-0.23,4.438-0.703c4.286-1.393,7.672-4.718,9.141-8.979l22.063-63.996l67.675-1.237
			c4.502-0.083,8.707-2.272,11.354-5.916c2.648-3.644,3.437-8.318,2.125-12.628l-19.701-64.749l53.984-40.795
			c3.594-2.715,5.705-6.958,5.705-11.461S438.883,211.75,435.289,209.037z M152.298,253.177c0,3.107-2.519,5.625-5.625,5.625h-6.135
			c-3.106,0-5.625-2.519-5.625-5.625v-41.355c0-4.653-1.426-8.17-4.356-10.752c-2.966-2.612-7.105-3.938-12.301-3.938
			c-5.196,0-9.336,1.325-12.302,3.938c-2.93,2.581-4.355,6.098-4.355,10.751v41.355c0,3.107-2.519,5.625-5.625,5.625h-6.135
			c-3.106,0-5.625-2.519-5.625-5.625v-41.355c0-8.647,3.371-16.144,10.021-22.283c6.605-6.096,14.686-9.186,24.021-9.186
			s17.415,3.09,24.019,9.186c6.65,6.139,10.023,13.637,10.023,22.284V253.177z M237.93,232.466
			c-1.847,5.916-5.064,11.091-9.841,15.824c-7.832,7.832-17.032,11.646-28.109,11.646c-11.076,0-20.275-3.803-28.125-11.625
			c-7.852-7.822-11.668-17.036-11.668-28.167c0-11.077,3.814-20.277,11.665-28.127s17.051-11.666,28.128-11.666
			c10.369,0,18.82,2.812,25.118,8.357c4.396,3.874,7.551,7.424,9.379,10.554c0.77,1.319,0.971,2.895,0.556,4.365
			c-0.416,1.471-1.412,2.708-2.759,3.43l-49.985,26.763c0.578,0.729,1.21,1.438,1.893,2.121c4.396,4.396,9.563,6.533,15.8,6.533
			c6.235,0,11.415-2.148,15.836-6.569c2.372-2.372,4.104-5.04,5.148-7.934c0.908-2.508,3.454-4.037,6.092-3.656l6.303,0.905
			c1.632,0.234,3.08,1.173,3.959,2.566C238.195,229.183,238.419,230.892,237.93,232.466z M356.78,228.468
			c0,8.801-3.137,16.441-9.324,22.71c-6.194,6.278-13.779,9.462-22.545,9.462c-8.856,0-16.606-3.394-23.08-10.097
			c-6.475,6.703-14.224,10.097-23.079,10.097c-8.766,0-16.352-3.184-22.547-9.464c-6.186-6.268-9.322-13.908-9.322-22.708v-42.06
			c0-3.107,2.52-5.625,5.625-5.625h6.33c3.105,0,5.625,2.519,5.625,5.625v42.06c0,4.495,1.229,7.867,3.758,10.311
			c2.557,2.475,6.001,3.676,10.531,3.676c4.525,0,7.956-1.199,10.484-3.665c2.511-2.447,3.729-5.823,3.729-10.321v-42.06
			c0-3.107,2.521-5.625,5.625-5.625h6.482c3.105,0,5.625,2.519,5.625,5.625v42.06c0,4.498,1.22,7.874,3.729,10.321
			c2.528,2.467,5.959,3.666,10.484,3.666c4.53,0,7.975-1.201,10.529-3.673c2.528-2.447,3.76-5.82,3.76-10.313v-42.06
			c0-3.107,2.519-5.625,5.625-5.625h6.33c3.105,0,5.625,2.519,5.625,5.625L356.78,228.468L356.78,228.468z"/>
		<path fill="#fbc02d" d="M199.979,197.812c-6.233,0-11.399,2.148-15.795,6.566c-4.085,4.106-6.219,8.847-6.504,14.456l33.687-17.977
			C208,198.835,204.183,197.812,199.979,197.812z"/>
	</g>
</g>
<g>
</g>
<g>
</g>
<g>
</g>
<g>
</g>
<g>
</g>
<g>
</g>
<g>
</g>
<g>
</g>
<g>
</g>
<g>
</g>
<g>
</g>
<g>
</g>
<g>
</g>
<g>
</g>
<g>
</g>
</svg>
